# xmcd
#
# Track frame offsets: 
#        150
#        12766
#        24514
#        36678
#        48513
#        60655
#        74031
#        86426
#        99579
#        111715
#        121721
#        133184
#        144501
#        156414
#        169681
#        181325
#        191847
#        203775
#        214126
#        226521
#        237367
#        249153
#        260267
#        272427
#
# Disc length: 3751 seconds
#
# Revision: 0
# Processed by: cddbd v1.5.2PL0 Copyright (c) Steve Scherf et al.
# Submitted via: ExactAudioCopyFreeDBPlugin 1.0
#
DISCID=5a0ea518
DTITLE=Bobby Bare - The Travelin' Bare and Constant Sorrow
DYEAR=2018
DGENRE=Country
TTITLE0=Down In Mexico
TTITLE1=Sittin' And Thinkin'
TTITLE2=I've Lived A Lot In My Time
TTITLE3=I'm Gettin' Lonely
TTITLE4=Long Way To Tennessee
TTITLE5=Sweeter Than The Flowers
TTITLE6=I Was Coming Home To You
TTITLE7=Long Black Limousine
TTITLE8=Another Bridge To Burn
TTITLE9=Lonely Town
TTITLE10=Candy Coated Kisses
TTITLE11=When I'm Gone
TTITLE12=I'm A Man Of Constant Sorrow
TTITLE13=Blowin' In The Wind
TTITLE14=Times Are Gettin' Hard
TTITLE15=Lemon Tree
TTITLE16=So Soon
TTITLE17=One Day At A Time
TTITLE18=Delia's Gone
TTITLE19=Just To Satisfy You
TTITLE20=I'm A Long Way From Home
TTITLE21=The Deepening Snow
TTITLE22=Don't Think Twice, It's Alright
TTITLE23=Countin' The Hours - Countin' The Days
EXTD=
EXTT0=
EXTT1=
EXTT2=
EXTT3=
EXTT4=
EXTT5=
EXTT6=
EXTT7=
EXTT8=
EXTT9=
EXTT10=
EXTT11=
EXTT12=
EXTT13=
EXTT14=
EXTT15=
EXTT16=
EXTT17=
EXTT18=
EXTT19=
EXTT20=
EXTT21=
EXTT22=
EXTT23=
PLAYORDER=
